<svg width="485" height="372" viewBox="0 0 485 372" fill="none" xmlns="http://www.w3.org/2000/svg">
<path d="M72.3653 52.5905L76.3789 51.868L80.4039 74.2274L76.3903 74.9499L72.3653 52.5905ZM62.831 54.3068L66.8447 53.5843L70.8696 75.9437L66.856 76.6662L62.831 54.3068ZM64.7994 53.9525L74.8873 52.1365L75.5793 55.981L65.4915 57.7969L64.7994 53.9525ZM85.2212 50.2763L87.8969 49.7946L98.8727 70.9027L94.7053 71.6529L87.8905 57.4322L86.4628 73.1367L82.3107 73.8841L85.2212 50.2763ZM84.8474 65.8387L93.7819 64.2304L94.4684 68.0441L85.5339 69.6524L84.8474 65.8387ZM100.676 57.639L106.228 56.6397C106.638 56.5659 106.975 56.4099 107.239 56.1719C107.511 55.9217 107.698 55.6076 107.8 55.2295C107.911 54.8496 107.925 54.4289 107.842 53.9676L107.607 52.6605C107.52 52.1786 107.364 51.7782 107.137 51.4592C106.908 51.1299 106.623 50.9007 106.283 50.7715C105.95 50.6302 105.574 50.5974 105.154 50.6731L99.6022 51.6724L98.9074 47.8126L104.459 46.8132C105.71 46.5881 106.84 46.6334 107.849 46.9491C108.867 47.2528 109.703 47.8114 110.357 48.625C111.02 49.4265 111.461 50.4321 111.678 51.6418L112.016 53.5179C112.232 54.7174 112.168 55.8031 111.825 56.7752C111.481 57.7473 110.891 58.5573 110.055 59.2053C109.218 59.8429 108.173 60.2744 106.923 60.4995L101.371 61.4988L100.676 57.639ZM97.0621 48.1448L101.076 47.4223L105.101 69.7816L101.087 70.5041L97.0621 48.1448ZM121.689 54.1581L123.773 43.3364L128.156 42.5474L125.175 56.3248L121.689 54.1581ZM122.069 56.5346L125.263 53.991L133.119 64.7379L128.475 65.5739L122.069 56.5346ZM113.916 45.1108L117.93 44.3883L121.955 66.7476L117.941 67.4701L113.916 45.1108ZM117.347 54.1142L124.267 52.8685L124.962 56.7283L118.042 57.974L117.347 54.1142ZM129.971 42.2208L134.23 41.454L141.935 56.9117L139.959 60.4902L129.971 42.2208ZM143.407 58.5676C143.292 59.5727 143.052 60.4466 142.689 61.1895C142.325 61.9324 141.825 62.5357 141.189 62.9995C140.553 63.4633 139.773 63.7782 138.85 63.9443L136.774 64.3181L136.069 60.3967L137.683 60.106C138.124 60.0267 138.501 59.8582 138.815 59.6007C139.126 59.3329 139.371 58.9872 139.549 58.5636C139.735 58.1279 139.855 57.6194 139.909 57.0381L141.196 40.2L145.287 39.4636L143.407 58.5676ZM150.9 48.598L156.452 47.5987C156.862 47.5248 157.199 47.3689 157.463 47.1309C157.735 46.8807 157.922 46.5666 158.024 46.1885C158.135 45.8086 158.149 45.3879 158.066 44.9266L157.831 43.6195C157.744 43.1376 157.588 42.7372 157.361 42.4182C157.132 42.0889 156.847 41.8596 156.507 41.7305C156.174 41.5892 155.798 41.5564 155.378 41.6321L149.826 42.6314L149.131 38.7716L154.683 37.7722C155.934 37.5471 157.064 37.5924 158.073 37.9081C159.091 38.2118 159.927 38.7704 160.581 39.584C161.244 40.3855 161.685 41.3911 161.902 42.6008L162.24 44.4769C162.456 45.6764 162.392 46.7621 162.049 47.7342C161.705 48.7063 161.115 49.5163 160.279 50.1643C159.442 50.8019 158.397 51.2334 157.147 51.4585L151.595 52.4578L150.9 48.598ZM147.286 39.1038L151.3 38.3812L155.325 60.7406L151.311 61.4631L147.286 39.1038Z" fill="black"/>
<path d="M219.872 162.94C217.779 162.872 215.999 162.491 214.531 161.798C213.063 161.104 211.958 160.125 211.218 158.861C210.488 157.587 210.151 156.065 210.209 154.295L210.274 152.28C210.331 150.521 210.764 149.034 211.575 147.82C212.396 146.596 213.562 145.685 215.071 145.088C216.581 144.49 218.382 144.226 220.475 144.293C222.578 144.361 224.358 144.742 225.816 145.435C227.284 146.129 228.388 147.113 229.128 148.388C229.869 149.652 230.211 151.164 230.154 152.923L230.089 154.938C230.032 156.708 229.592 158.205 228.771 159.429C227.95 160.643 226.785 161.548 225.275 162.145C223.776 162.743 221.975 163.008 219.872 162.94ZM218.476 141.805L222.63 141.94L221.87 165.428L217.716 165.293L218.476 141.805ZM219.995 159.129C221.921 159.192 223.417 158.854 224.483 158.118C225.56 157.371 226.122 156.269 226.169 154.811L226.234 152.796C226.281 151.349 225.791 150.223 224.764 149.419C223.749 148.605 222.278 148.166 220.352 148.104C218.426 148.041 216.929 148.384 215.863 149.131C214.797 149.868 214.24 150.96 214.194 152.407L214.128 154.421C214.081 155.879 214.566 157.015 215.581 157.83C216.598 158.634 218.069 159.067 219.995 159.129ZM234.588 153.098L240.226 153.28C240.642 153.294 241.004 153.212 241.312 153.034C241.631 152.846 241.88 152.578 242.058 152.23C242.246 151.881 242.348 151.473 242.363 151.005L242.406 149.677C242.422 149.188 242.352 148.763 242.197 148.404C242.042 148.034 241.812 147.751 241.505 147.553C241.21 147.346 240.849 147.235 240.422 147.221L234.784 147.039L234.911 143.119L240.549 143.301C241.819 143.342 242.915 143.623 243.836 144.142C244.768 144.652 245.469 145.373 245.939 146.305C246.42 147.228 246.64 148.303 246.6 149.531L246.539 151.437C246.499 152.655 246.21 153.703 245.671 154.582C245.132 155.461 244.386 156.13 243.433 156.589C242.481 157.038 241.369 157.241 240.099 157.2L234.461 157.018L234.588 153.098ZM233.037 143.058L237.113 143.19L236.378 165.897L232.302 165.765L233.037 143.058ZM260.054 166.647L260.598 149.828L260.943 150.277L253.526 166.436L249.419 166.303L250.153 143.612L253.964 143.735L253.413 160.742L253.053 160.293L260.507 143.947L264.599 144.079L263.864 166.771L260.054 166.647ZM270.038 154.245L275.676 154.427C276.092 154.441 276.455 154.359 276.763 154.181C277.081 153.993 277.33 153.725 277.508 153.377C277.696 153.028 277.798 152.62 277.813 152.152L277.856 150.824C277.872 150.335 277.802 149.91 277.647 149.551C277.492 149.181 277.262 148.898 276.956 148.7C276.66 148.493 276.299 148.382 275.872 148.368L270.234 148.186L270.361 144.266L275.999 144.448C277.269 144.489 278.365 144.77 279.286 145.289C280.218 145.799 280.919 146.52 281.389 147.452C281.87 148.375 282.09 149.45 282.051 150.678L281.989 152.584C281.95 153.802 281.66 154.85 281.121 155.729C280.582 156.608 279.836 157.277 278.883 157.736C277.931 158.185 276.819 158.388 275.549 158.347L269.912 158.165L270.038 154.245ZM268.487 144.205L272.563 144.337L271.829 167.044L267.753 166.912L268.487 144.205ZM289.601 144.888L292.318 144.976L298.643 167.912L294.41 167.775L290.717 152.444L286.04 167.504L281.823 167.367L289.601 144.888ZM285.985 160.029L295.058 160.323L294.933 164.196L285.859 163.902L285.985 160.029ZM311.309 145.591L315.385 145.723L314.65 168.429L310.574 168.298L311.309 145.591ZM301.626 145.277L305.702 145.409L304.967 168.116L300.891 167.984L301.626 145.277ZM303.223 154.881L313.639 155.218L313.514 159.091L303.097 158.754L303.223 154.881Z" fill="black"/>
<path d="M322.047 47.2495L327.372 47.4218C328.101 47.4454 328.669 47.2813 329.076 46.9298C329.494 46.5785 329.714 46.0749 329.735 45.419L329.785 43.8729C329.8 43.4044 329.719 43.0006 329.543 42.6614C329.377 42.3121 329.12 42.0432 328.772 41.8547C328.434 41.6666 328.02 41.5647 327.531 41.5488L322.237 41.3775L322.361 37.5202L327.609 37.69C328.275 37.7115 328.796 37.546 329.172 37.1934C329.559 36.8307 329.764 36.311 329.786 35.6343L329.825 34.4162C329.844 33.8227 329.672 33.3586 329.307 33.0237C328.954 32.6788 328.444 32.4955 327.777 32.4739L322.53 32.3042L322.656 28.4312L328.168 28.6096C329.418 28.65 330.478 28.8979 331.349 29.3534C332.221 29.7985 332.872 30.4345 333.304 31.2614C333.736 32.0883 333.933 33.0744 333.896 34.2196L333.857 35.4377C333.831 36.2186 333.658 36.906 333.337 37.5001C333.015 38.0942 332.557 38.5796 331.961 38.9564C331.365 39.3227 330.659 39.5604 329.843 39.6695C330.714 39.8123 331.455 40.1021 332.066 40.5387C332.677 40.965 333.134 41.5113 333.435 42.1776C333.747 42.8443 333.889 43.6149 333.861 44.4895L333.81 46.0511C333.773 47.2068 333.512 48.1884 333.027 48.9961C332.543 49.7934 331.851 50.3911 330.952 50.7893C330.054 51.1875 328.985 51.3666 327.746 51.3265L321.921 51.1381L322.047 47.2495ZM320.61 28.365L324.686 28.4969L323.951 51.2037L319.875 51.0719L320.61 28.365ZM343.261 52.063C341.835 52.0169 340.6 51.7007 339.556 51.1146C338.512 50.518 337.721 49.6951 337.181 48.6459C336.642 47.5966 336.395 46.3745 336.44 44.9794L336.746 35.5156C336.791 34.1205 337.117 32.9168 337.723 31.9046C338.329 30.882 339.172 30.112 340.252 29.5946C341.332 29.0772 342.585 28.8415 344.011 28.8877C345.448 28.9342 346.689 29.2505 347.733 29.8366C348.777 30.4228 349.568 31.2457 350.107 32.3053C350.646 33.3546 350.893 34.5767 350.848 35.9718L350.542 45.4356C350.497 46.8307 350.171 48.0344 349.565 49.0466C348.959 50.0588 348.116 50.8288 347.036 51.3566C345.957 51.8741 344.698 52.1095 343.261 52.063ZM343.393 47.9871C343.976 48.0059 344.49 47.9027 344.935 47.6774C345.381 47.4417 345.725 47.1037 345.969 46.6634C346.212 46.2231 346.344 45.7011 346.363 45.0972L346.657 36.0082C346.677 35.4148 346.579 34.8905 346.364 34.4354C346.15 33.9803 345.828 33.626 345.398 33.3724C344.969 33.1084 344.463 32.9669 343.88 32.948C343.297 32.9292 342.783 33.0376 342.337 33.2733C341.903 33.499 341.564 33.8319 341.32 34.2722C341.077 34.7125 340.945 35.2293 340.926 35.8228L340.632 44.9118C340.612 45.5156 340.71 46.0451 340.925 46.5002C341.139 46.9553 341.456 47.3147 341.875 47.5783C342.304 47.832 342.81 47.9682 343.393 47.9871ZM355.956 39.4982L361.593 39.6806C362.01 39.6941 362.372 39.612 362.68 39.4344C362.999 39.2467 363.247 38.9785 363.425 38.63C363.614 38.2817 363.715 37.8733 363.731 37.4048L363.774 36.0774C363.789 35.5881 363.72 35.1637 363.565 34.8043C363.41 34.4346 363.179 34.1509 362.873 33.9534C362.577 33.7458 362.216 33.6351 361.789 33.6213L356.152 33.4389L356.279 29.5191L361.916 29.7015C363.186 29.7426 364.282 30.023 365.203 30.5426C366.135 31.0522 366.836 31.7731 367.306 32.7055C367.787 33.6278 368.008 34.7032 367.968 35.9317L367.906 37.837C367.867 39.0551 367.578 40.1036 367.039 40.9824C366.499 41.8613 365.753 42.5302 364.801 42.9892C363.848 43.4378 362.737 43.6416 361.467 43.6005L355.829 43.4181L355.956 39.4982ZM354.405 29.4584L358.481 29.5903L357.746 52.2972L353.67 52.1653L354.405 29.4584ZM377.232 40.4837L381.531 30.3361L385.982 30.4801L380.188 43.3308L377.232 40.4837ZM377.107 42.8871L380.762 41.0669L386.2 53.2178L381.483 53.0652L377.107 42.8871ZM371.521 30.0122L375.597 30.1441L374.862 52.851L370.786 52.7191L371.521 30.0122ZM372.995 39.5336L380.022 39.761L379.895 43.6808L372.868 43.4535L372.995 39.5336ZM394.134 30.7439L396.851 30.8318L403.175 53.7671L398.943 53.6301L395.249 38.2996L390.572 53.3593L386.356 53.2229L394.134 30.7439ZM390.517 45.8849L399.591 46.1784L399.465 50.0514L390.392 49.7578L390.517 45.8849ZM403.223 31.038L407.549 31.1779L411.854 47.904L409.174 50.9909L403.223 31.038ZM412.948 49.8311C412.625 50.7899 412.209 51.5945 411.698 52.245C411.187 52.8955 410.572 53.3811 409.853 53.7017C409.134 54.0224 408.306 54.1676 407.369 54.1373L405.26 54.069L405.389 50.0867L407.029 50.1398C407.477 50.1543 407.881 50.0684 408.241 49.882C408.602 49.6852 408.913 49.3983 409.176 49.0211C409.449 48.6339 409.672 48.1618 409.847 47.6046L414.623 31.4068L418.777 31.5412L412.948 49.8311ZM424.932 33.6164L429.008 33.7483L428.334 54.5811L424.258 54.4492L424.932 33.6164ZM420.026 31.5817L434.035 32.0349L433.908 35.9547L419.9 35.5015L420.026 31.5817Z" fill="black"/>
<path d="M41.0607 254.65L45.0942 254.049L48.169 274.664L44.1355 275.266L41.0607 254.65ZM35.8697 253.529L49.7319 251.461L50.3105 255.34L36.4482 257.408L35.8697 253.529ZM55.2074 260.739L60.7864 259.907C61.1985 259.846 61.5401 259.7 61.8112 259.47C62.0911 259.228 62.2873 258.92 62.3999 258.545C62.5228 258.169 62.5497 257.748 62.4805 257.285L62.2846 255.971C62.2124 255.487 62.0677 255.082 61.8506 254.756C61.632 254.42 61.3543 254.183 61.0176 254.043C60.6896 253.892 60.3144 253.848 59.892 253.911L54.3131 254.743L53.7345 250.864L59.3135 250.032C60.5704 249.845 61.6986 249.924 62.698 250.27C63.7063 250.604 64.5253 251.187 65.155 252.02C65.7936 252.841 66.2035 253.86 66.3848 255.075L66.666 256.961C66.8458 258.166 66.7494 259.25 66.3767 260.211C66.004 261.172 65.3902 261.964 64.5351 262.587C63.6786 263.199 62.6218 263.599 61.3649 263.786L55.786 264.618L55.2074 260.739ZM51.8801 251.141L55.9136 250.539L59.265 273.009L55.2315 273.611L51.8801 251.141ZM82.6911 269.5L80.2086 252.856L80.6286 253.235L76.2313 270.463L72.1669 271.069L68.8177 248.615L72.5885 248.052L75.0986 264.882L74.6632 264.504L79.0637 247.086L83.1127 246.482L86.4619 268.937L82.6911 269.5ZM94.4582 255.185L96.8668 244.431L101.271 243.774L97.8774 257.456L94.4582 255.185ZM94.7668 257.572L98.0354 255.126L105.565 266.104L100.898 266.8L94.7668 257.572ZM86.9607 245.908L90.9942 245.307L94.3457 267.777L90.3122 268.379L86.9607 245.908ZM90.1193 255.011L97.0737 253.974L97.6522 257.853L90.6979 258.89L90.1193 255.011ZM118.174 264.207L115.691 247.563L116.111 247.943L111.714 265.171L107.649 265.777L104.3 243.322L108.071 242.76L110.581 259.589L110.146 259.212L114.546 241.794L118.595 241.19L121.944 263.645L118.174 264.207ZM132.025 239.187L136.058 238.585L139.41 261.056L135.376 261.657L132.025 239.187ZM122.443 240.616L126.477 240.015L129.828 262.485L125.795 263.086L122.443 240.616ZM125.737 249.777L136.045 248.24L136.616 252.073L126.309 253.61L125.737 249.777ZM139.906 238.011L143.94 237.41L147.291 259.88L143.258 260.482L139.906 238.011ZM141.823 237.726L150.724 236.398L151.303 240.277L142.401 241.605L141.823 237.726Z" fill="black"/>
<path d="M257.458 338.519C256.021 338.473 254.801 338.157 253.799 337.572C252.797 336.977 252.042 336.14 251.535 335.06C251.028 333.981 250.799 332.686 250.848 331.177L251.137 322.26C251.185 320.75 251.498 319.473 252.073 318.428C252.65 317.374 253.457 316.587 254.495 316.068C255.533 315.539 256.771 315.297 258.208 315.344C259.624 315.39 260.807 315.709 261.757 316.303C262.707 316.897 263.429 317.774 263.923 318.937C264.427 320.089 264.703 321.542 264.751 323.294L260.566 323.159C260.53 322.334 260.411 321.653 260.21 321.115C260.019 320.577 259.745 320.172 259.389 319.9C259.033 319.618 258.595 319.468 258.075 319.451C257.523 319.433 257.045 319.538 256.642 319.764C256.239 319.981 255.926 320.314 255.703 320.766C255.48 321.207 255.358 321.75 255.337 322.395L255.049 331.313C255.028 331.958 255.114 332.508 255.308 332.963C255.502 333.417 255.793 333.77 256.181 334.023C256.569 334.264 257.039 334.394 257.591 334.412C258.111 334.429 258.558 334.313 258.931 334.065C259.314 333.816 259.618 333.43 259.844 332.906C260.08 332.372 260.237 331.694 260.316 330.873L264.501 331.009C264.33 332.754 263.961 334.191 263.393 335.319C262.825 336.437 262.048 337.261 261.061 337.792C260.075 338.323 258.874 338.565 257.458 338.519ZM273.594 326.363L277.893 316.215L282.344 316.359L276.55 329.21L273.594 326.363ZM273.469 328.766L277.124 326.946L282.562 339.097L277.845 338.944L273.469 328.766ZM267.882 315.891L271.958 316.023L271.224 338.73L267.148 338.598L267.882 315.891ZM269.357 325.413L276.384 325.64L276.257 329.56L269.23 329.333L269.357 325.413ZM285.405 316.458L289.481 316.59L288.746 339.297L284.67 339.165L285.405 316.458ZM286.422 335.267L297.447 335.624L297.32 339.575L286.294 339.218L286.422 335.267ZM286.723 325.959L296.499 326.275L296.371 330.227L286.595 329.91L286.723 325.959ZM287.029 316.511L298.054 316.868L297.926 320.819L286.901 320.462L287.029 316.511ZM310.922 339.999L311.466 323.18L311.811 323.629L304.394 339.788L300.287 339.655L301.021 316.964L304.832 317.087L304.282 334.094L303.921 333.644L311.375 317.299L315.467 317.431L314.733 340.122L310.922 339.999ZM313.058 310.725C313.006 312.307 312.561 313.523 311.72 314.371C310.88 315.219 309.72 315.619 308.242 315.571L308.117 315.567C306.639 315.52 305.508 315.045 304.724 314.144C303.94 313.244 303.574 312.002 303.625 310.419L306.904 310.557C306.883 311.202 306.986 311.711 307.214 312.083C307.452 312.445 307.785 312.633 308.212 312.647L308.337 312.651C308.774 312.665 309.118 312.499 309.369 312.153C309.62 311.796 309.756 311.295 309.777 310.65L313.058 310.725ZM323.168 319.556L327.244 319.688L326.57 340.521L322.494 340.389L323.168 319.556ZM318.262 317.522L332.271 317.975L332.144 321.895L318.136 321.441L318.262 317.522ZM335.801 336.896L341.173 337.07C341.632 337.084 342.031 336.993 342.37 336.796C342.721 336.588 342.996 336.295 343.196 335.916C343.396 335.526 343.505 335.071 343.522 334.55L343.551 333.645C343.569 333.103 343.49 332.632 343.315 332.23C343.152 331.818 342.901 331.503 342.564 331.283C342.228 331.054 341.831 330.931 341.373 330.917L336 330.743L336.127 326.823L341.796 327.006C343.045 327.047 344.12 327.332 345.02 327.861C345.92 328.39 346.605 329.126 347.075 330.069C347.545 331.002 347.76 332.092 347.719 333.342L347.661 335.138C347.621 336.366 347.337 337.431 346.807 338.331C346.278 339.231 345.542 339.91 344.6 340.37C343.668 340.829 342.582 341.039 341.343 340.999L335.674 340.816L335.801 336.896ZM334.441 318.045L338.517 318.177L337.783 340.884L333.707 340.752L334.441 318.045ZM336.378 318.108L346.857 318.447L346.73 322.367L336.251 322.028L336.378 318.108ZM357.062 341.742C355.636 341.696 354.4 341.38 353.356 340.794C352.313 340.197 351.521 339.374 350.982 338.325C350.442 337.276 350.195 336.053 350.241 334.658L350.547 325.195C350.592 323.799 350.917 322.596 351.523 321.584C352.13 320.561 352.973 319.791 354.053 319.274C355.132 318.756 356.385 318.521 357.812 318.567C359.249 318.613 360.489 318.929 361.533 319.516C362.577 320.102 363.369 320.925 363.908 321.984C364.447 323.034 364.694 324.256 364.649 325.651L364.343 335.115C364.297 336.51 363.972 337.713 363.366 338.726C362.76 339.738 361.917 340.508 360.837 341.036C359.757 341.553 358.499 341.789 357.062 341.742ZM357.194 337.666C357.777 337.685 358.291 337.582 358.736 337.356C359.181 337.121 359.526 336.783 359.769 336.342C360.013 335.902 360.144 335.38 360.164 334.776L360.458 325.687C360.477 325.094 360.379 324.57 360.165 324.114C359.95 323.659 359.628 323.305 359.199 323.051C358.77 322.787 358.263 322.646 357.68 322.627C357.097 322.608 356.583 322.717 356.138 322.952C355.703 323.178 355.364 323.511 355.121 323.951C354.877 324.391 354.746 324.908 354.726 325.502L354.432 334.591C354.413 335.195 354.51 335.724 354.725 336.179C354.94 336.634 355.256 336.994 355.675 337.257C356.104 337.511 356.611 337.647 357.194 337.666ZM369.756 329.177L375.394 329.36C375.81 329.373 376.172 329.291 376.48 329.113C376.799 328.926 377.048 328.658 377.226 328.309C377.414 327.961 377.516 327.552 377.531 327.084L377.574 325.756C377.59 325.267 377.52 324.843 377.365 324.483C377.21 324.114 376.98 323.83 376.673 323.632C376.378 323.425 376.017 323.314 375.59 323.3L369.952 323.118L370.079 319.198L375.717 319.381C376.987 319.422 378.083 319.702 379.004 320.222C379.936 320.731 380.637 321.452 381.107 322.385C381.588 323.307 381.808 324.382 381.768 325.611L381.707 327.516C381.667 328.734 381.378 329.783 380.839 330.661C380.3 331.54 379.554 332.209 378.601 332.668C377.648 333.117 376.537 333.321 375.267 333.279L369.629 333.097L369.756 329.177ZM368.205 319.137L372.281 319.269L371.546 341.976L367.47 341.844L368.205 319.137ZM383.151 338.428L383.511 338.439C384.292 338.465 384.903 338.073 385.347 337.264C385.79 336.455 386.036 335.269 386.087 333.708L386.539 319.731L390.443 319.857L390.018 333.006C389.96 334.807 389.702 336.336 389.244 337.593C388.797 338.85 388.115 339.808 387.197 340.466C386.29 341.124 385.134 341.431 383.728 341.385L383.056 341.364L383.151 338.428ZM382.87 338.419L386.712 338.543L386.443 346.851L382.602 346.727L382.87 338.419ZM382.87 338.419L399.237 338.948L399.11 342.868L382.744 342.338L382.87 338.419ZM396.629 338.864L400.471 338.988L400.202 347.296L396.36 347.172L396.629 338.864ZM394.847 319.999L398.923 320.131L398.189 342.838L394.113 342.706L394.847 319.999ZM389.163 319.816L396.69 320.059L396.563 323.979L389.036 323.735L389.163 319.816ZM413.868 343.33L414.413 326.511L414.758 326.959L407.341 343.119L403.233 342.986L403.968 320.295L407.778 320.418L407.228 337.425L406.867 336.975L414.321 320.63L418.413 320.762L417.679 343.453L413.868 343.33ZM431.984 321.201L436.06 321.333L435.325 344.04L431.249 343.908L431.984 321.201ZM422.302 320.888L426.378 321.02L425.643 343.727L421.567 343.595L422.302 320.888ZM423.898 330.491L434.315 330.828L434.189 334.701L423.773 334.364L423.898 330.491ZM439.949 321.459L444.025 321.591L443.29 344.298L439.214 344.166L439.949 321.459ZM441.885 321.521L450.88 321.812L450.754 325.732L441.758 325.441L441.885 321.521Z" fill="black"/>
</svg>
